D:\school\WTK\thesis\model\3dpredictsim\Results\Batchsim_tmt_linear_v2\Pog_s1_tmt_aCst_d00_k1000_ig24_pas_GRF.mot
nRows=12
nColumns=19

name D:\school\WTK\thesis\model\3dpredictsim\Results\Batchsim_tmt_linear_v2\Pog_s1_tmt_aCst_d00_k1000_ig24_pas_GRF.mot
datacolumns 19
datarows 12
range 0.0000000000 0.1195385759
endheader
time 	ground_force_vx	ground_force_vy	ground_force_vz	ground_force_px	ground_force_py	ground_force_pz	1_ground_force_vx	1_ground_force_vy	1_ground_force_vz	1_ground_force_px	1_ground_force_py	1_ground_force_pz	ground_torque_x	ground_torque_y	ground_torque_z	1_ground_torque_x	1_ground_torque_y	1_ground_torque_z
        0.0000000000	      -60.9713900405	       42.9927376683	       10.9883496354	        0.1614355165	        0.0000000000	        0.0474661833	      119.7223127250	      486.4232071100	        4.7958813869	       -0.3495762723	        0.0000000000	       -0.0477202887	        0.0000000000	        0.0000000000	        0.0000000000	        0.0000000000	        0.0000000000	        0.0000000000	
        0.0108671433	     -114.7631112771	       99.1656057246	       26.7057334355	        0.1718135887	        0.0000000000	        0.0455696272	       86.4830898467	      385.5854476381	       -0.9818922433	       -0.3362596400	        0.0000000000	       -0.0455465839	        0.0000000000	        0.0000000000	        0.0000000000	        0.0000000000	        0.0000000000	        0.0000000000	
        0.0217342865	     -120.9237221986	      217.4215141163	       44.9119866106	        0.1787214749	        0.0000000000	        0.0445069373	       47.4223910821	      275.7787407153	       -6.6850781416	       -0.3142629574	        0.0000000000	       -0.0414202154	        0.0000000000	        0.0000000000	        0.0000000000	        0.0000000000	        0.0000000000	        0.0000000000	
        0.0326014298	      -70.2906539027	      405.2326092598	        6.8657936404	        0.1838671821	        0.0000000000	        0.0438974216	       15.5780762900	      183.6876426202	       -8.5139387140	       -0.2825855504	        0.0000000000	       -0.0341636222	        0.0000000000	        0.0000000000	        0.0000000000	        0.0000000000	        0.0000000000	        0.0000000000	
        0.0434685731	      -85.1164613202	      647.0183826108	       -9.3976288132	        0.1933021022	        0.0000000000	        0.0462666837	       -0.3336284736	      142.9742491540	      -11.1704174970	       -0.2680243317	        0.0000000000	       -0.0295327492	        0.0000000000	        0.0000000000	        0.0000000000	        0.0000000000	        0.0000000000	        0.0000000000	
        0.0543357163	     -123.6137506877	      861.2299714562	      -17.8640217218	        0.2015613310	        0.0000000000	        0.0486198497	       -1.2210144075	      110.4289920385	      -11.6372182030	       -0.2676403312	        0.0000000000	       -0.0297079162	        0.0000000000	        0.0000000000	        0.0000000000	        0.0000000000	        0.0000000000	        0.0000000000	
        0.0652028596	     -137.5388535528	      952.7422303398	      -20.9924228270	        0.2070302502	        0.0000000000	        0.0500416058	       -4.2412032595	       72.3808678541	      -11.0697632245	       -0.2671798265	        0.0000000000	       -0.0298308566	        0.0000000000	        0.0000000000	        0.0000000000	        0.0000000000	        0.0000000000	        0.0000000000	
        0.0760700029	     -132.4398922911	      944.3462434349	      -20.5271452680	        0.2110414140	        0.0000000000	        0.0509631095	       -8.9404246815	       30.4493685333	       -6.4508683544	       -0.2675207233	        0.0000000000	       -0.0297760099	        0.0000000000	        0.0000000000	        0.0000000000	        0.0000000000	        0.0000000000	        0.0000000000	
        0.0869371461	     -118.8570476830	      897.0339229298	      -19.7021839116	        0.2146899225	        0.0000000000	        0.0516228912	        0.1776804074	       -0.1794402967	        0.0159604761	        0.0000000000	        0.0000000000	        0.0000000000	        0.0000000000	        0.0000000000	        0.0000000000	        0.0000000000	        0.0000000000	        0.0000000000	
        0.0978042894	     -104.1442953116	      845.0850665668	      -18.5110154419	        0.2187472893	        0.0000000000	        0.0522700277	        0.0004153585	       -0.0003452178	       -0.0000034422	        0.0000000000	        0.0000000000	        0.0000000000	        0.0000000000	        0.0000000000	        0.0000000000	        0.0000000000	        0.0000000000	        0.0000000000	
        0.1086714327	      -95.1860334280	      808.6053048849	      -18.7267688500	        0.2241995618	        0.0000000000	        0.0528018659	        0.0001861874	       -0.0001348529	       -0.0000054571	        0.0000000000	        0.0000000000	        0.0000000000	        0.0000000000	        0.0000000000	        0.0000000000	        0.0000000000	        0.0000000000	        0.0000000000	
        0.1195385759	      -86.7011467054	      773.7743282502	      -18.0875522870	        0.2301873895	        0.0000000000	        0.0529421497	        0.0014506299	       -0.0009416398	       -0.0000556644	        0.0000000000	        0.0000000000	        0.0000000000	        0.0000000000	        0.0000000000	        0.0000000000	        0.0000000000	        0.0000000000	        0.0000000000	
